<svg width="99" height="89" viewBox="0 0 99 89" fill="none" xmlns="http://www.w3.org/2000/svg">
<g clip-path="url(#clip0_65_243)">
<path d="M52.1679 88.6667C74.7203 88.6667 93.0026 70.3104 93.0026 47.6667C93.0026 25.023 74.7203 6.66669 52.1679 6.66669C29.6156 6.66669 11.3333 25.023 11.3333 47.6667C11.3333 70.3104 29.6156 88.6667 52.1679 88.6667Z" fill="#FFFF00" stroke="black" stroke-width="5"/>
<path d="M60.3217 34.7129C60.1138 34.6022 59.9299 34.4513 59.7805 34.2693C59.6311 34.0871 59.5189 33.8772 59.4505 33.6515C59.3821 33.4257 59.3582 33.1887 59.3815 32.9538C59.404 32.7197 59.4724 32.4924 59.5827 32.2849C59.8084 31.8762 60.1842 31.572 60.6298 31.4373C61.0759 31.3025 61.556 31.3478 61.969 31.5635C64.854 33.124 67.2722 35.4295 68.9733 38.2419C70.6751 41.0549 71.598 44.2731 71.6465 47.564C71.695 50.8549 70.8676 54.0991 69.2495 56.9613C67.6314 59.824 65.2816 62.2007 62.4431 63.846C59.6046 65.492 56.3796 66.3467 53.1016 66.322C49.8235 66.298 46.6118 65.3953 43.7972 63.7073C40.9833 62.02 38.6687 59.6087 37.093 56.7227C35.5181 53.8366 34.7386 50.5807 34.8349 47.2912C34.8461 46.987 34.9338 46.6907 35.0898 46.4299C35.2465 46.1689 35.467 45.9522 35.7299 45.8004L35.7312 45.7995C36.0207 45.6308 36.3507 45.5469 36.6847 45.5573C36.9197 45.5649 37.1508 45.619 37.3646 45.7165C37.5791 45.8139 37.7716 45.9529 37.9323 46.1253C38.0923 46.2977 38.2178 46.5003 38.3002 46.7213C38.3825 46.9423 38.4203 47.1775 38.4117 47.4133V47.4161C38.336 50.1851 39.0412 52.9193 40.4455 55.3039C41.5902 57.3087 43.1837 59.0193 45.1 60.3007C47.0169 61.582 49.204 62.3993 51.4888 62.6867C53.7735 62.974 56.0941 62.7247 58.266 61.9573C60.4385 61.1907 62.4039 59.9273 64.0067 58.2667C65.6096 56.6067 66.8061 54.5953 67.5019 52.3913C68.1978 50.1873 68.3744 47.851 68.0165 45.5669C67.6593 43.2827 66.7782 41.1133 65.4429 39.2296C64.1077 37.346 62.3541 35.7997 60.3217 34.7129Z" fill="#FF0000" stroke="black"/>
<path d="M24.8181 57.3653C22.8388 59.2267 19.7606 59.2013 17.8045 57.3627L17.5748 57.1167L5.14044 43.7861C-1.61487 36.5444 -1.24305 25.1307 5.96975 18.3481L13.1719 11.5757C17.9765 7.05773 24.3361 5.57 30.6306 7.48686L52.1056 14.0278C53.9993 14.6088 55.0736 16.6255 54.5013 18.5193C53.1395 23.0226 48.6549 25.4873 44.2933 24.1558L38.846 22.4986L37.6614 22.138L38.5073 23.0455L57.1844 43.0677C59.2553 45.2879 59.1438 48.7889 56.9328 50.8679C54.7217 52.9471 51.2345 52.835 49.1616 50.6123L41.9773 42.9109L41.5132 42.4127L41.4069 43.0869C41.2237 44.2594 40.6679 45.3817 39.7397 46.2549C38.4117 47.5031 36.625 47.9633 34.9577 47.6478L34.5129 47.5635L34.5666 48.0151C34.7692 49.7042 34.1995 51.4645 32.8728 52.7123C31.2189 54.2672 28.8465 54.5967 26.8884 53.732L26.4608 53.5431L26.4236 54.0109C26.3267 55.2487 25.7888 56.4527 24.8181 57.3653ZM63.2737 46.4455C63.2923 45.8701 63.5407 45.3595 63.9311 44.9927C64.3169 44.6295 64.846 44.4133 65.4197 44.4321C65.4197 44.4321 65.4204 44.4321 65.4204 44.4322L71.9148 44.6485C73.0595 44.6887 73.9578 45.652 73.9206 46.8036C73.8801 47.9527 72.9207 48.8549 71.774 48.8172L65.2796 48.6009C65.2796 48.601 65.279 48.6009 65.2796 48.6009C64.1349 48.5607 63.2359 47.5972 63.2737 46.4455ZM49.9882 58.938L49.9889 58.9367C50.0048 58.3593 50.2558 57.8467 50.6429 57.4827C51.0333 57.116 51.5565 56.9 52.1302 56.9193H52.1309C53.2802 56.9547 54.1786 57.9173 54.1407 59.0693L53.9309 65.5907C53.8957 66.7447 52.9363 67.6473 51.7896 67.61C50.6402 67.5747 49.7412 66.6113 49.7784 65.46L49.9882 58.938ZM68.0212 65.7933L60.7493 57.9973C59.9658 57.1573 60.0083 55.8393 60.8456 55.052C61.6829 54.2649 62.9955 54.3081 63.779 55.1485L71.0509 62.944C71.8351 63.7847 71.7919 65.1027 70.9547 65.8893C70.118 66.6767 68.8054 66.6333 68.0212 65.7933ZM64.3447 37.8045C63.5081 38.5916 62.1955 38.5483 61.4113 37.708C60.6271 36.8675 60.6703 35.5495 61.5076 34.7625L69.2715 27.4613C70.1087 26.6742 71.4214 26.7174 72.2049 27.5578C72.9891 28.3982 72.9459 29.7162 72.1093 30.5033L64.3447 37.8045ZM35.7054 64.736C34.8687 65.5233 33.5561 65.48 32.7719 64.6393C31.9877 63.7993 32.0309 62.4813 32.8682 61.694L40.6321 54.393C41.4694 53.6059 42.7821 53.6491 43.5655 54.4895C44.3497 55.3299 44.3065 56.648 43.4699 57.4347L35.7054 64.736Z" fill="white"/>
<path d="M54.5013 18.5193C55.0736 16.6255 53.9993 14.6088 52.1056 14.0278L30.6306 7.48686C24.3361 5.57 17.9765 7.05773 13.1719 11.5757L5.96975 18.3481C-1.24305 25.1307 -1.61487 36.5444 5.14044 43.7861L17.5748 57.1167L17.8045 57.3627C19.7606 59.2013 22.8388 59.2267 24.8181 57.3653C25.7888 56.4527 26.3267 55.2487 26.4236 54.0109L26.4608 53.5431L26.8884 53.732C28.8465 54.5967 31.2189 54.2672 32.8728 52.7123C34.1995 51.4645 34.7692 49.7042 34.5666 48.0151L34.5129 47.5635L34.9577 47.6478C36.625 47.9633 38.4117 47.5031 39.7397 46.2549C40.6679 45.3817 41.2237 44.2594 41.4069 43.0869L41.5132 42.4127L41.9773 42.9109L49.1616 50.6123C51.2345 52.835 54.7217 52.9471 56.9328 50.8679C59.1438 48.7889 59.2553 45.2879 57.1844 43.0677L38.5073 23.0455L37.6614 22.138L38.846 22.4986L44.2933 24.1558C48.6549 25.4873 53.1395 23.0226 54.5013 18.5193ZM54.5013 18.5193L54.8187 18.6161M65.2796 48.6009L71.774 48.8172C72.9207 48.8549 73.8801 47.9527 73.9206 46.8036C73.9578 45.652 73.0595 44.6887 71.9148 44.6485L65.4204 44.4322C65.4204 44.4321 65.4197 44.4321 65.4197 44.4321C64.846 44.4133 64.3169 44.6295 63.9311 44.9927C63.5407 45.3595 63.2923 45.8701 63.2737 46.4455C63.2359 47.5972 64.1349 48.5607 65.2796 48.6009ZM65.2796 48.6009C65.279 48.6009 65.2796 48.601 65.2796 48.6009ZM49.9882 58.938L49.9889 58.9367C50.0048 58.3593 50.2558 57.8467 50.6429 57.4827C51.0333 57.116 51.5565 56.9 52.1302 56.9193H52.1309C53.2802 56.9547 54.1786 57.9173 54.1407 59.0693L53.9309 65.5907C53.8957 66.7447 52.9363 67.6473 51.7896 67.61C50.6402 67.5747 49.7412 66.6113 49.7784 65.46L49.9882 58.938ZM68.0212 65.7933L60.7493 57.9973C59.9658 57.1573 60.0083 55.8393 60.8456 55.052C61.6829 54.2649 62.9955 54.3081 63.779 55.1485L71.0509 62.944C71.8351 63.7847 71.7919 65.1027 70.9547 65.8893C70.118 66.6767 68.8054 66.6333 68.0212 65.7933ZM64.3447 37.8045C63.5081 38.5916 62.1955 38.5483 61.4113 37.708C60.6271 36.8675 60.6703 35.5495 61.5076 34.7625L69.2715 27.4613C70.1087 26.6742 71.4214 26.7174 72.2049 27.5578C72.9891 28.3982 72.9459 29.7162 72.1093 30.5033L64.3447 37.8045ZM35.7054 64.736C34.8687 65.5233 33.5561 65.48 32.7719 64.6393C31.9877 63.7993 32.0309 62.4813 32.8682 61.694L40.6321 54.393C41.4694 53.6059 42.7821 53.6491 43.5655 54.4895C44.3497 55.3299 44.3065 56.648 43.4699 57.4347L35.7054 64.736Z" stroke="black"/>
<path d="M71.001 62.8445L63.8694 55.0507C63.071 54.1783 61.7194 54.1208 60.8505 54.9224L60.8505 54.9224C59.9815 55.724 59.9243 57.081 60.7226 57.9535L67.8543 65.7473C68.6526 66.6198 70.0042 66.6772 70.8732 65.8757C71.7421 65.0741 71.7994 63.717 71.001 62.8445Z" fill="#0000FF"/>
<path d="M63.8694 55.0507L71.001 62.8445C71.7994 63.717 71.7421 65.0741 70.8732 65.8757L70.8732 65.8757C70.0042 66.6772 68.6526 66.6198 67.8543 65.7473L60.7226 57.9535C59.9243 57.081 59.9815 55.724 60.8505 54.9224L60.8505 54.9224C61.7194 54.1208 63.071 54.1783 63.8694 55.0507Z" stroke="black"/>
<path d="M53.9316 65.5378L54.1916 59.1765C54.2394 58.0087 53.3352 57.0232 52.1721 56.9752C51.009 56.9273 50.0274 57.8351 49.9797 59.003L49.7196 65.3642C49.6719 66.532 50.5761 67.5176 51.7392 67.5655C52.9023 67.6134 53.8839 66.7056 53.9316 65.5378Z" fill="#00FF00" stroke="black"/>
<path d="M65.39 48.9352L71.6749 49.0238C72.924 49.0414 73.9507 48.039 73.9683 46.7849L73.9683 46.7849C73.9858 45.5307 72.9874 44.4998 71.7384 44.4822L65.4535 44.3936C64.2044 44.376 63.1776 45.3784 63.1601 46.6326L63.1601 46.6326C63.1426 47.8867 64.1409 48.9176 65.39 48.9352Z" fill="#FFA500" stroke="black"/>
<path d="M69.1737 27.608L61.4971 34.8613C60.6378 35.6732 60.5967 37.0309 61.4054 37.8937L61.4054 37.8937C62.2141 38.7565 63.5663 38.7977 64.4256 37.9858L72.1021 30.7326C72.9615 29.9206 73.0025 28.5629 72.1939 27.7001C71.3852 26.8373 70.033 26.7961 69.1737 27.608Z" fill="#EE82EE"/>
<path d="M61.4971 34.8613L69.1737 27.608C70.033 26.7961 71.3852 26.8373 72.1939 27.7001L72.1939 27.7001C73.0025 28.5629 72.9615 29.9206 72.1021 30.7326L64.4256 37.9858C63.5663 38.7977 62.2141 38.7565 61.4054 37.8937L61.4054 37.8937C60.5967 37.0309 60.6378 35.6732 61.4971 34.8613Z" stroke="black"/>
<path d="M40.6226 54.2747L32.9461 61.5279C32.0868 62.3398 32.0457 63.6975 32.8544 64.5603L32.8544 64.5603C33.6631 65.4231 35.0153 65.4644 35.8746 64.6524L43.5511 57.3992C44.4105 56.5872 44.4515 55.2296 43.6428 54.3668L43.6428 54.3668C42.8342 53.5039 41.482 53.4627 40.6226 54.2747Z" fill="#FFFF00" stroke="black"/>
</g>
<defs>
<clipPath id="clip0_65_243">
<rect width="99" height="89" fill="white"/>
</clipPath>
</defs>
</svg>
